<svg width="32" height="33" viewBox="0 0 32 33" fill="none" xmlns="http://www.w3.org/2000/svg">
<rect y="0.184753" width="32" height="32" rx="4" fill="#F5F5F5"/>
<path d="M18.637 14.718C18.6826 15.1645 18.7087 15.5968 18.7087 16.0013C18.7087 16.7585 18.6172 17.6136 18.4772 18.4781C17.6127 18.6181 16.7576 18.7096 16.0003 18.7096C15.2465 18.7096 14.3917 18.6184 13.5234 18.4779C13.3835 17.6134 13.292 16.7585 13.292 16.0013C13.292 15.597 13.3181 15.1646 13.3637 14.718C14.275 14.8639 15.1841 14.9596 16.0003 14.9596C16.8167 14.9596 17.7257 14.8639 18.637 14.718Z" fill="#5F68FF"/>
<path d="M19.8695 14.4928C19.9258 15.0155 19.9586 15.5243 19.9586 16.0012C19.9586 16.6972 19.8889 17.4607 19.778 18.2356C21.3514 17.9072 22.8058 17.4878 23.5849 17.2491C23.8368 17.1718 23.9356 17.1412 24.0683 17.0881C24.1347 17.0616 24.1955 17.0346 24.2747 16.9966C24.3136 16.6703 24.3336 16.3381 24.3336 16.0012C24.3336 15.1107 24.1939 14.2529 23.9353 13.4484L23.8679 13.4696C23.0533 13.7175 21.5282 14.1556 19.8695 14.4928Z" fill="#5F68FF"/>
<path d="M23.4618 12.2852C22.6428 12.5334 21.2216 12.9368 19.6985 13.2508C19.3477 11.1184 18.7327 8.99162 18.4368 8.0285C20.6368 8.70015 22.4504 10.2576 23.4618 12.2852Z" fill="#5F68FF"/>
<path d="M18.4699 13.4785C17.6077 13.6178 16.7553 13.7088 16.0003 13.7088C15.2453 13.7088 14.393 13.6178 13.5308 13.4785C13.8612 11.4609 14.451 9.39976 14.7525 8.41585C14.8297 8.16405 14.8604 8.06514 14.9135 7.93239C14.94 7.86608 14.967 7.80526 15.0049 7.72602C15.3312 7.68717 15.6635 7.66718 16.0003 7.66718C16.3522 7.66718 16.699 7.68898 17.0394 7.73133C17.0467 7.75895 17.0533 7.78368 17.0599 7.80706C17.0794 7.87617 17.11 7.97329 17.1612 8.13625L17.1667 8.15338C17.4237 8.97053 18.105 11.2497 18.4699 13.4785Z" fill="#5F68FF"/>
<path d="M12.3018 13.2507C12.6511 11.1278 13.262 9.01246 13.5573 8.04901L13.5636 8.0285C11.3635 8.70015 9.54997 10.2576 8.53857 12.2852C9.35749 12.5334 10.7787 12.9367 12.3018 13.2507Z" fill="#5F68FF"/>
<path d="M8.06528 13.4484C7.80666 14.2529 7.66699 15.1107 7.66699 16.0012C7.66699 16.3496 7.68837 16.6929 7.72988 17.0301L7.86121 17.0738L7.86225 17.0742L7.86354 17.0746L7.86444 17.0749C7.90672 17.0889 9.14561 17.4981 10.7771 17.904C11.2375 18.0185 11.725 18.1317 12.2226 18.2355C12.1116 17.4607 12.042 16.6972 12.042 16.0012C12.042 15.5242 12.0747 15.0153 12.1311 14.4928C10.472 14.1555 8.9465 13.7172 8.13204 13.4694L8.12638 13.4677L8.06528 13.4484Z" fill="#5F68FF"/>
<path d="M16.0004 19.9591C16.6964 19.9591 17.4599 19.8894 18.2347 19.7785C17.9064 21.3519 17.487 22.8063 17.2482 23.5854C17.1711 23.8372 17.1403 23.9361 17.0872 24.0688C17.0607 24.1352 17.0337 24.196 16.9958 24.2753C16.6695 24.3141 16.3372 24.3341 16.0004 24.3341C15.6636 24.3341 15.3313 24.3141 15.005 24.2753C14.9671 24.196 14.9401 24.1352 14.9136 24.0688C14.8605 23.9361 14.8298 23.8373 14.7526 23.5854C14.5138 22.8064 14.0944 21.3521 13.7661 19.7788C14.5384 19.8893 15.3021 19.9591 16.0004 19.9591Z" fill="#5F68FF"/>
<path d="M10.4753 19.1158C9.44354 18.8591 8.56483 18.6013 8.02881 18.4367C8.83565 21.0795 10.9208 23.1646 13.5636 23.9715L13.5573 23.951C13.2995 23.1097 12.801 21.3903 12.4462 19.5543C11.7562 19.4209 11.0854 19.2676 10.4753 19.1158Z" fill="#5F68FF"/>
<path d="M23.9513 18.443C23.11 18.7008 21.3904 19.1993 19.5544 19.5541C19.1996 21.3901 18.7011 23.1097 18.4433 23.951L18.437 23.9715C21.0798 23.1646 23.1649 21.0795 23.9718 18.4367L23.9513 18.443Z" fill="#5F68FF"/>
<path d="M7.75439 17.05C7.78324 17.0537 7.80675 17.0577 7.81455 17.0594C7.82139 17.0612 7.83209 17.0639 7.83599 17.065L7.84456 17.0675L7.84918 17.0688L7.85404 17.0703L7.8581 17.0717C7.85582 17.0709 7.80952 17.0593 7.75439 17.05Z" fill="#5F68FF"/>
</svg>
