<svg width="32" height="33" viewBox="0 0 32 33" fill="none" xmlns="http://www.w3.org/2000/svg">
<rect y="0.184753" width="32" height="32" rx="4" fill="#F5F5F5"/>
<path d="M22.666 12.8501L15.9993 17.0168L9.33268 12.8501V11.1835L15.9993 15.3501L22.666 11.1835M22.666 9.51678H9.33268C8.40768 9.51678 7.66602 10.2585 7.66602 11.1835V21.1835C7.66602 21.6255 7.84161 22.0494 8.15417 22.362C8.46673 22.6745 8.89065 22.8501 9.33268 22.8501H22.666C23.108 22.8501 23.532 22.6745 23.8445 22.362C24.1571 22.0494 24.3327 21.6255 24.3327 21.1835V11.1835C24.3327 10.7414 24.1571 10.3175 23.8445 10.0049C23.532 9.69238 23.108 9.51678 22.666 9.51678Z" fill="#5F68FF"/>
</svg>
