<svg width="32" height="33" viewBox="0 0 32 33" fill="none" xmlns="http://www.w3.org/2000/svg">
<rect y="0.184753" width="32" height="32" rx="4" fill="#F5F5F5"/>
<path d="M22.625 23.6848C20.8333 23.6848 19.0869 23.2853 17.3858 22.4864C15.6842 21.6881 14.1772 20.6325 12.865 19.3198C11.5522 18.0075 10.4967 16.5006 9.69833 14.7989C8.89944 13.0978 8.5 11.3514 8.5 9.55975C8.5 9.30975 8.58333 9.10142 8.75 8.93475C8.91667 8.76809 9.125 8.68475 9.375 8.68475H12.75C12.9444 8.68475 13.1181 8.74725 13.2708 8.87225C13.4236 8.99725 13.5139 9.15698 13.5417 9.35142L14.0833 12.2681C14.1111 12.4625 14.1078 12.6395 14.0733 12.7989C14.0383 12.9589 13.9583 13.1014 13.8333 13.2264L11.8333 15.2681C12.4167 16.2681 13.1458 17.2056 14.0208 18.0806C14.8958 18.9556 15.8611 19.7125 16.9167 20.3514L18.875 18.3931C19 18.2681 19.1633 18.1742 19.365 18.1114C19.5661 18.0492 19.7639 18.032 19.9583 18.0598L22.8333 18.6431C23.0278 18.6848 23.1875 18.7784 23.3125 18.9239C23.4375 19.07 23.5 19.2403 23.5 19.4348V22.8098C23.5 23.0598 23.4167 23.2681 23.25 23.4348C23.0833 23.6014 22.875 23.6848 22.625 23.6848Z" fill="#5F68FF"/>
</svg>
